<svg id="Capa_1" data-name="Capa 1" xmlns="http://www.w3.org/2000/svg" xmlns:xlink="http://www.w3.org/1999/xlink" viewBox="0 0 36.51 49.5"><defs><style>.cls-1,.cls-2,.cls-3{stroke:#fff;}.cls-1,.cls-2,.cls-3,.cls-4{stroke-miterlimit:10;}.cls-1{fill:url(#Degradado_sin_nombre_31);}.cls-2{fill:url(#Degradado_sin_nombre_31-2);}.cls-3{fill:url(#Degradado_sin_nombre_31-3);}.cls-4{fill:#fff;stroke:#1d1d1b;}</style><radialGradient id="Degradado_sin_nombre_31" cx="15.49" cy="17.07" r="9.66" gradientTransform="matrix(1, 0, 0.05, 1.01, -1.28, -0.95)" gradientUnits="userSpaceOnUse"><stop offset="0" stop-color="#5b97d1"/><stop offset="0.96" stop-color="#484797"/></radialGradient><radialGradient id="Degradado_sin_nombre_31-2" cx="-0.97" cy="21.67" r="9.66" gradientTransform="matrix(1, 0, 0.05, -1.01, 34.78, 37.91)" xlink:href="#Degradado_sin_nombre_31"/><radialGradient id="Degradado_sin_nombre_31-3" cx="25.18" cy="34.02" r="15.29" gradientTransform="matrix(1, 0, 0, 1, 0, 0)" xlink:href="#Degradado_sin_nombre_31"/></defs><title>katui</title><path class="cls-1" d="M21.61,20.68l-11.11,8c-1.44.24-3.62-9.9-3.2-11.4L10.9,1.63c.1-.42,0,.44,0,0h0a.85.85,0,0,1,1.58-.17l6,6.7C19.13,9.05,23.71,16.57,21.61,20.68Z" transform="translate(-6.74 -0.25)"/><path class="cls-2" d="M28.38,20.63l11.1,8.05c1.44.24,3.64-10,3.23-11.51L39.12,1.39c-.1-.43,0,.44,0,0h0a.85.85,0,0,0-1.58-.18L31.49,8C30.88,8.89,26.29,16.48,28.38,20.63Z" transform="translate(-6.74 -0.25)"/><path class="cls-3" d="M25.18,49.25A15.16,15.16,0,0,1,9.84,34.13V29.89a11.1,11.1,0,0,1,11.1-11.1h8.42A11.16,11.16,0,0,1,40.52,29.94v4.19A15.16,15.16,0,0,1,25.18,49.25Z" transform="translate(-6.74 -0.25)"/><path class="cls-4" d="M27.8,50" transform="translate(-6.74 -0.25)"/></svg>